<svg width="54" height="56" viewBox="0 0 54 56" fill="none" xmlns="http://www.w3.org/2000/svg">
<g filter="url(#filter0_d_35_95)">
<g style="mix-blend-mode:lighten" filter="url(#filter1_d_35_95)">
<ellipse cx="35.5" cy="12.819" rx="12.9349" ry="10.819" stroke="white" stroke-width="3" shape-rendering="crispEdges"/>
</g>
<ellipse cx="35.5" cy="12.819" rx="8.92065" ry="7.46135" fill="#00A4C8"/>
<g style="mix-blend-mode:darken" filter="url(#filter2_d_35_95)">
<ellipse cx="35.5" cy="12.819" rx="5.79842" ry="4.84988" fill="black"/>
<ellipse cx="35.5" cy="12.819" rx="5.79842" ry="4.84988" stroke="white" stroke-width="3"/>
</g>
</g>
<g style="mix-blend-mode:darken" filter="url(#filter3_d_35_95)">
<mask id="path-4-outside-1_35_95" maskUnits="userSpaceOnUse" x="4" y="-0.510254" width="27" height="28" fill="black">
<rect fill="white" x="4" y="-0.510254" width="27" height="28"/>
<path d="M17.4993 12.4677H30.2863V14.0637C30.2863 15.8624 29.9823 17.5407 29.3743 19.0987C28.779 20.6567 27.924 22.0247 26.8093 23.2027C25.6947 24.3807 24.3647 25.2991 22.8193 25.9577C21.274 26.6164 19.564 26.9457 17.6893 26.9457C15.7513 26.9457 13.9907 26.6164 12.4073 25.9577C10.8367 25.2864 9.48132 24.3554 8.34132 23.1647C7.20132 21.9741 6.32732 20.5934 5.71932 19.0227C5.11132 17.4394 4.80732 15.7421 4.80732 13.9307C4.80732 12.1321 5.11132 10.4474 5.71932 8.87675C6.32732 7.29341 7.20132 5.91274 8.34132 4.73474C9.48132 3.54408 10.8367 2.61941 12.4073 1.96075C13.9907 1.28941 15.7513 0.953744 17.6893 0.953744C19.2727 0.953744 20.666 1.12474 21.8693 1.46675C23.0853 1.80874 24.1303 2.26475 25.0043 2.83475C25.8783 3.40475 26.6193 4.03175 27.2273 4.71575C27.8353 5.38708 28.342 6.04575 28.7473 6.69175L23.3513 9.23775C22.832 8.43974 22.1227 7.74308 21.2233 7.14775C20.3367 6.55241 19.1587 6.25475 17.6893 6.25475C16.6633 6.25475 15.7197 6.45741 14.8583 6.86275C14.0097 7.26808 13.275 7.82541 12.6543 8.53475C12.0337 9.23141 11.5523 10.0484 11.2103 10.9857C10.881 11.9104 10.7163 12.8921 10.7163 13.9307C10.7163 14.9821 10.881 15.9701 11.2103 16.8947C11.5523 17.8194 12.0337 18.6364 12.6543 19.3457C13.275 20.0551 14.0097 20.6124 14.8583 21.0177C15.7197 21.4104 16.6633 21.6067 17.6893 21.6067C18.5887 21.6067 19.4057 21.4927 20.1403 21.2647C20.875 21.0367 21.5083 20.7074 22.0403 20.2767C22.585 19.8461 23.0093 19.3394 23.3133 18.7567C23.63 18.1614 23.82 17.5091 23.8833 16.7997H17.4993V12.4677Z"/>
</mask>
<path d="M17.4993 12.4677H30.2863V14.0637C30.2863 15.8624 29.9823 17.5407 29.3743 19.0987C28.779 20.6567 27.924 22.0247 26.8093 23.2027C25.6947 24.3807 24.3647 25.2991 22.8193 25.9577C21.274 26.6164 19.564 26.9457 17.6893 26.9457C15.7513 26.9457 13.9907 26.6164 12.4073 25.9577C10.8367 25.2864 9.48132 24.3554 8.34132 23.1647C7.20132 21.9741 6.32732 20.5934 5.71932 19.0227C5.11132 17.4394 4.80732 15.7421 4.80732 13.9307C4.80732 12.1321 5.11132 10.4474 5.71932 8.87675C6.32732 7.29341 7.20132 5.91274 8.34132 4.73474C9.48132 3.54408 10.8367 2.61941 12.4073 1.96075C13.9907 1.28941 15.7513 0.953744 17.6893 0.953744C19.2727 0.953744 20.666 1.12474 21.8693 1.46675C23.0853 1.80874 24.1303 2.26475 25.0043 2.83475C25.8783 3.40475 26.6193 4.03175 27.2273 4.71575C27.8353 5.38708 28.342 6.04575 28.7473 6.69175L23.3513 9.23775C22.832 8.43974 22.1227 7.74308 21.2233 7.14775C20.3367 6.55241 19.1587 6.25475 17.6893 6.25475C16.6633 6.25475 15.7197 6.45741 14.8583 6.86275C14.0097 7.26808 13.275 7.82541 12.6543 8.53475C12.0337 9.23141 11.5523 10.0484 11.2103 10.9857C10.881 11.9104 10.7163 12.8921 10.7163 13.9307C10.7163 14.9821 10.881 15.9701 11.2103 16.8947C11.5523 17.8194 12.0337 18.6364 12.6543 19.3457C13.275 20.0551 14.0097 20.6124 14.8583 21.0177C15.7197 21.4104 16.6633 21.6067 17.6893 21.6067C18.5887 21.6067 19.4057 21.4927 20.1403 21.2647C20.875 21.0367 21.5083 20.7074 22.0403 20.2767C22.585 19.8461 23.0093 19.3394 23.3133 18.7567C23.63 18.1614 23.82 17.5091 23.8833 16.7997H17.4993V12.4677Z" fill="#FF3030"/>
<path d="M17.4993 12.4677V11.9677H16.9993V12.4677H17.4993ZM30.2863 12.4677H30.7863V11.9677H30.2863V12.4677ZM29.3743 19.0987L28.9085 18.917L28.9073 18.9203L29.3743 19.0987ZM26.8093 23.2027L26.4461 22.8591L26.4461 22.8591L26.8093 23.2027ZM22.8193 25.9577L22.6233 25.4978L22.6233 25.4978L22.8193 25.9577ZM12.4073 25.9577L12.2108 26.4175L12.2153 26.4194L12.4073 25.9577ZM8.34132 23.1647L8.70247 22.819L8.70247 22.819L8.34132 23.1647ZM5.71932 19.0227L5.25255 19.202L5.25304 19.2032L5.71932 19.0227ZM5.71932 8.87675L6.18561 9.05724L6.18609 9.05598L5.71932 8.87675ZM8.34132 4.73474L8.70063 5.08246L8.70247 5.08053L8.34132 4.73474ZM12.4073 1.96075L12.6007 2.42185L12.6025 2.42108L12.4073 1.96075ZM21.8693 1.46675L21.7326 1.9477L21.7339 1.94807L21.8693 1.46675ZM25.0043 2.83475L24.7312 3.25355L24.7312 3.25355L25.0043 2.83475ZM27.2273 4.71575L26.8536 5.04794L26.8567 5.05139L27.2273 4.71575ZM28.7473 6.69175L28.9607 7.14394L29.4704 6.90343L29.1709 6.426L28.7473 6.69175ZM23.3513 9.23775L22.9323 9.51047L23.1702 9.87607L23.5647 9.68994L23.3513 9.23775ZM21.2233 7.14775L20.9446 7.56287L20.9473 7.56467L21.2233 7.14775ZM14.8583 6.86275L14.6454 6.41033L14.6428 6.41157L14.8583 6.86275ZM12.6543 8.53475L13.0277 8.86736L13.0306 8.864L12.6543 8.53475ZM11.2103 10.9857L10.7406 10.8144L10.7393 10.818L11.2103 10.9857ZM11.2103 16.8947L10.7393 17.0625L10.7414 17.0682L11.2103 16.8947ZM14.8583 21.0177L14.6428 21.469L14.6509 21.4727L14.8583 21.0177ZM20.1403 21.2647L20.2885 21.7423L20.2885 21.7423L20.1403 21.2647ZM22.0403 20.2767L21.7302 19.8845L21.7257 19.8881L22.0403 20.2767ZM23.3133 18.7567L22.8719 18.5219L22.87 18.5255L23.3133 18.7567ZM23.8833 16.7997L24.3813 16.8442L24.43 16.2997H23.8833V16.7997ZM17.4993 16.7997H16.9993V17.2997H17.4993V16.7997ZM17.4993 12.9677H30.2863V11.9677H17.4993V12.9677ZM29.7863 12.4677V14.0637H30.7863V12.4677H29.7863ZM29.7863 14.0637C29.7863 15.8049 29.4923 17.4212 28.9085 18.917L29.8401 19.2805C30.4724 17.6603 30.7863 15.9199 30.7863 14.0637H29.7863ZM28.9073 18.9203C28.3347 20.4187 27.5144 21.7302 26.4461 22.8591L27.1725 23.5464C28.3336 22.3193 29.2233 20.8948 29.8414 19.2772L28.9073 18.9203ZM26.4461 22.8591C25.3803 23.9855 24.1078 24.865 22.6233 25.4978L23.0154 26.4177C24.6215 25.7331 26.009 24.776 27.1725 23.5464L26.4461 22.8591ZM22.6233 25.4978C21.1467 26.1271 19.5044 26.4457 17.6893 26.4457V27.4457C19.6235 27.4457 21.4012 27.1057 23.0154 26.4177L22.6233 25.4978ZM17.6893 26.4457C15.8087 26.4457 14.1144 26.1264 12.5994 25.4961L12.2153 26.4194C13.8669 27.1065 15.6939 27.4457 17.6893 27.4457V26.4457ZM12.6038 25.498C11.0929 24.8522 9.79415 23.9591 8.70247 22.819L7.98017 23.5105C9.1685 24.7517 10.5804 25.7207 12.2108 26.4175L12.6038 25.498ZM8.70247 22.819C7.60908 21.677 6.77033 20.3528 6.1856 18.8422L5.25304 19.2032C5.88431 20.834 6.79356 22.2712 7.98017 23.5105L8.70247 22.819ZM6.18609 18.8435C5.60151 17.3212 5.30732 15.685 5.30732 13.9307H4.30732C4.30732 15.7992 4.62113 17.5577 5.25255 19.202L6.18609 18.8435ZM5.30732 13.9307C5.30732 12.1896 5.60137 10.5665 6.1856 9.05724L5.25304 8.69625C4.62127 10.3283 4.30732 12.0746 4.30732 13.9307H5.30732ZM6.18609 9.05598C6.77082 7.53324 7.60904 6.21042 8.70062 5.08245L7.98202 4.38703C6.7936 5.61507 5.88382 7.05358 5.25255 8.69751L6.18609 9.05598ZM8.70247 5.08053C9.79346 3.94106 11.0911 3.05489 12.6007 2.42184L12.214 1.49965C10.5822 2.18394 9.16918 3.1471 7.98017 4.38896L8.70247 5.08053ZM12.6025 2.42108C14.1167 1.77904 15.8099 1.45374 17.6893 1.45374V0.453744C15.6928 0.453744 13.8646 0.799778 12.2121 1.50042L12.6025 2.42108ZM17.6893 1.45374C19.2381 1.45374 20.5837 1.62116 21.7326 1.9477L22.006 0.985793C20.7483 0.628325 19.3072 0.453744 17.6893 0.453744V1.45374ZM21.7339 1.94807C22.911 2.27913 23.9075 2.71637 24.7312 3.25355L25.2775 2.41594C24.3531 1.81312 23.2596 1.33836 22.0047 0.98542L21.7339 1.94807ZM24.7312 3.25355C25.5731 3.8026 26.2789 4.40141 26.8536 5.04793L27.601 4.38356C26.9597 3.66208 26.1836 3.00689 25.2775 2.41594L24.7312 3.25355ZM26.8567 5.05139C27.4486 5.70492 27.9366 6.34039 28.3238 6.95749L29.1709 6.426C28.7474 5.7511 28.222 5.06924 27.5979 4.38011L26.8567 5.05139ZM28.534 6.23955L23.138 8.78555L23.5647 9.68994L28.9607 7.14394L28.534 6.23955ZM23.7704 8.96502C23.2091 8.10253 22.4481 7.35892 21.4993 6.73082L20.9473 7.56467C21.7972 8.12724 22.4549 8.77696 22.9323 9.51047L23.7704 8.96502ZM21.502 6.73264C20.5073 6.06475 19.2217 5.75475 17.6893 5.75475V6.75475C19.0956 6.75475 20.166 7.04008 20.9446 7.56286L21.502 6.73264ZM17.6893 5.75475C16.5955 5.75475 15.5784 5.97127 14.6454 6.41034L15.0712 7.31516C15.8609 6.94355 16.7311 6.75475 17.6893 6.75475V5.75475ZM14.6428 6.41157C13.7327 6.84626 12.9434 7.44512 12.278 8.20549L13.0306 8.864C13.6066 8.2057 14.2866 7.6899 15.0738 7.31393L14.6428 6.41157ZM12.281 8.20214C11.6155 8.94917 11.1027 9.82184 10.7406 10.8144L11.68 11.1571C12.0019 10.275 12.4519 9.51365 13.0277 8.86735L12.281 8.20214ZM10.7393 10.818C10.3897 11.7996 10.2163 12.8383 10.2163 13.9307H11.2163C11.2163 12.9459 11.3723 12.0213 11.6813 11.1535L10.7393 10.818ZM10.2163 13.9307C10.2163 15.0352 10.3895 16.0803 10.7393 17.0625L11.6813 16.727C11.3725 15.8599 11.2163 14.929 11.2163 13.9307H10.2163ZM10.7414 17.0682C11.1035 18.0473 11.6154 18.9177 12.278 19.675L13.0306 19.0165C12.4519 18.3551 12.0011 17.5915 11.6793 16.7213L10.7414 17.0682ZM12.278 19.675C12.9434 20.4354 13.7327 21.0342 14.6428 21.4689L15.0738 20.5666C14.2866 20.1906 13.6066 19.6748 13.0306 19.0165L12.278 19.675ZM14.6509 21.4727C15.5827 21.8975 16.5978 22.1067 17.6893 22.1067V21.1067C16.7288 21.1067 15.8566 20.9234 15.0657 20.5628L14.6509 21.4727ZM17.6893 22.1067C18.6306 22.1067 19.4985 21.9874 20.2885 21.7423L19.9921 20.7872C19.3128 20.9981 18.5467 21.1067 17.6893 21.1067V22.1067ZM20.2885 21.7423C21.0763 21.4978 21.7679 21.1406 22.3549 20.6654L21.7257 19.8881C21.2488 20.2742 20.6737 20.5757 19.9921 20.7872L20.2885 21.7423ZM22.3504 20.669C22.9471 20.1971 23.4182 19.6366 23.7566 18.988L22.87 18.5255C22.6004 19.0422 22.2228 19.495 21.7302 19.8845L22.3504 20.669ZM23.7548 18.9916C24.1046 18.3339 24.3124 17.6163 24.3813 16.8442L23.3853 16.7553C23.3276 17.4018 23.1554 17.9889 22.8719 18.5219L23.7548 18.9916ZM23.8833 16.2997H17.4993V17.2997H23.8833V16.2997ZM17.9993 16.7997V12.4677H16.9993V16.7997H17.9993Z" fill="white" mask="url(#path-4-outside-1_35_95)"/>
</g>
<g style="mix-blend-mode:color-dodge" filter="url(#filter4_d_35_95)">
<mask id="path-6-outside-2_35_95" maskUnits="userSpaceOnUse" x="4" y="-0.510254" width="27" height="28" fill="black">
<rect fill="white" x="4" y="-0.510254" width="27" height="28"/>
<path d="M17.4993 12.4677H30.2863V14.0637C30.2863 15.8624 29.9823 17.5407 29.3743 19.0987C28.779 20.6567 27.924 22.0247 26.8093 23.2027C25.6947 24.3807 24.3647 25.2991 22.8193 25.9577C21.274 26.6164 19.564 26.9457 17.6893 26.9457C15.7513 26.9457 13.9907 26.6164 12.4073 25.9577C10.8367 25.2864 9.48132 24.3554 8.34132 23.1647C7.20132 21.9741 6.32732 20.5934 5.71932 19.0227C5.11132 17.4394 4.80732 15.7421 4.80732 13.9307C4.80732 12.1321 5.11132 10.4474 5.71932 8.87675C6.32732 7.29341 7.20132 5.91274 8.34132 4.73474C9.48132 3.54408 10.8367 2.61941 12.4073 1.96075C13.9907 1.28941 15.7513 0.953744 17.6893 0.953744C19.2727 0.953744 20.666 1.12474 21.8693 1.46675C23.0853 1.80874 24.1303 2.26475 25.0043 2.83475C25.8783 3.40475 26.6193 4.03175 27.2273 4.71575C27.8353 5.38708 28.342 6.04575 28.7473 6.69175L23.3513 9.23775C22.832 8.43974 22.1227 7.74308 21.2233 7.14775C20.3367 6.55241 19.1587 6.25475 17.6893 6.25475C16.6633 6.25475 15.7197 6.45741 14.8583 6.86275C14.0097 7.26808 13.275 7.82541 12.6543 8.53475C12.0337 9.23141 11.5523 10.0484 11.2103 10.9857C10.881 11.9104 10.7163 12.8921 10.7163 13.9307C10.7163 14.9821 10.881 15.9701 11.2103 16.8947C11.5523 17.8194 12.0337 18.6364 12.6543 19.3457C13.275 20.0551 14.0097 20.6124 14.8583 21.0177C15.7197 21.4104 16.6633 21.6067 17.6893 21.6067C18.5887 21.6067 19.4057 21.4927 20.1403 21.2647C20.875 21.0367 21.5083 20.7074 22.0403 20.2767C22.585 19.8461 23.0093 19.3394 23.3133 18.7567C23.63 18.1614 23.82 17.5091 23.8833 16.7997H17.4993V12.4677Z"/>
</mask>
<path d="M17.4993 12.4677H30.2863V14.0637C30.2863 15.8624 29.9823 17.5407 29.3743 19.0987C28.779 20.6567 27.924 22.0247 26.8093 23.2027C25.6947 24.3807 24.3647 25.2991 22.8193 25.9577C21.274 26.6164 19.564 26.9457 17.6893 26.9457C15.7513 26.9457 13.9907 26.6164 12.4073 25.9577C10.8367 25.2864 9.48132 24.3554 8.34132 23.1647C7.20132 21.9741 6.32732 20.5934 5.71932 19.0227C5.11132 17.4394 4.80732 15.7421 4.80732 13.9307C4.80732 12.1321 5.11132 10.4474 5.71932 8.87675C6.32732 7.29341 7.20132 5.91274 8.34132 4.73474C9.48132 3.54408 10.8367 2.61941 12.4073 1.96075C13.9907 1.28941 15.7513 0.953744 17.6893 0.953744C19.2727 0.953744 20.666 1.12474 21.8693 1.46675C23.0853 1.80874 24.1303 2.26475 25.0043 2.83475C25.8783 3.40475 26.6193 4.03175 27.2273 4.71575C27.8353 5.38708 28.342 6.04575 28.7473 6.69175L23.3513 9.23775C22.832 8.43974 22.1227 7.74308 21.2233 7.14775C20.3367 6.55241 19.1587 6.25475 17.6893 6.25475C16.6633 6.25475 15.7197 6.45741 14.8583 6.86275C14.0097 7.26808 13.275 7.82541 12.6543 8.53475C12.0337 9.23141 11.5523 10.0484 11.2103 10.9857C10.881 11.9104 10.7163 12.8921 10.7163 13.9307C10.7163 14.9821 10.881 15.9701 11.2103 16.8947C11.5523 17.8194 12.0337 18.6364 12.6543 19.3457C13.275 20.0551 14.0097 20.6124 14.8583 21.0177C15.7197 21.4104 16.6633 21.6067 17.6893 21.6067C18.5887 21.6067 19.4057 21.4927 20.1403 21.2647C20.875 21.0367 21.5083 20.7074 22.0403 20.2767C22.585 19.8461 23.0093 19.3394 23.3133 18.7567C23.63 18.1614 23.82 17.5091 23.8833 16.7997H17.4993V12.4677Z" fill="white"/>
<path d="M17.4993 12.4677V11.9677H16.9993V12.4677H17.4993ZM30.2863 12.4677H30.7863V11.9677H30.2863V12.4677ZM29.3743 19.0987L28.9085 18.917L28.9073 18.9203L29.3743 19.0987ZM26.8093 23.2027L26.4461 22.8591L26.4461 22.8591L26.8093 23.2027ZM22.8193 25.9577L22.6233 25.4978L22.6233 25.4978L22.8193 25.9577ZM12.4073 25.9577L12.2108 26.4175L12.2153 26.4194L12.4073 25.9577ZM8.34132 23.1647L8.70247 22.819L8.70247 22.819L8.34132 23.1647ZM5.71932 19.0227L5.25255 19.202L5.25304 19.2032L5.71932 19.0227ZM5.71932 8.87675L6.18561 9.05724L6.18609 9.05598L5.71932 8.87675ZM8.34132 4.73474L8.70063 5.08246L8.70247 5.08053L8.34132 4.73474ZM12.4073 1.96075L12.6007 2.42185L12.6025 2.42108L12.4073 1.96075ZM21.8693 1.46675L21.7326 1.9477L21.7339 1.94807L21.8693 1.46675ZM25.0043 2.83475L24.7312 3.25355L24.7312 3.25355L25.0043 2.83475ZM27.2273 4.71575L26.8536 5.04794L26.8567 5.05139L27.2273 4.71575ZM28.7473 6.69175L28.9607 7.14394L29.4704 6.90343L29.1709 6.426L28.7473 6.69175ZM23.3513 9.23775L22.9323 9.51047L23.1702 9.87607L23.5647 9.68994L23.3513 9.23775ZM21.2233 7.14775L20.9446 7.56287L20.9473 7.56467L21.2233 7.14775ZM14.8583 6.86275L14.6454 6.41033L14.6428 6.41157L14.8583 6.86275ZM12.6543 8.53475L13.0277 8.86736L13.0306 8.864L12.6543 8.53475ZM11.2103 10.9857L10.7406 10.8144L10.7393 10.818L11.2103 10.9857ZM11.2103 16.8947L10.7393 17.0625L10.7414 17.0682L11.2103 16.8947ZM14.8583 21.0177L14.6428 21.469L14.6509 21.4727L14.8583 21.0177ZM20.1403 21.2647L20.2885 21.7423L20.2885 21.7423L20.1403 21.2647ZM22.0403 20.2767L21.7302 19.8845L21.7257 19.8881L22.0403 20.2767ZM23.3133 18.7567L22.8719 18.5219L22.87 18.5255L23.3133 18.7567ZM23.8833 16.7997L24.3813 16.8442L24.43 16.2997H23.8833V16.7997ZM17.4993 16.7997H16.9993V17.2997H17.4993V16.7997ZM17.4993 12.9677H30.2863V11.9677H17.4993V12.9677ZM29.7863 12.4677V14.0637H30.7863V12.4677H29.7863ZM29.7863 14.0637C29.7863 15.8049 29.4923 17.4212 28.9085 18.917L29.8401 19.2805C30.4724 17.6603 30.7863 15.9199 30.7863 14.0637H29.7863ZM28.9073 18.9203C28.3347 20.4187 27.5144 21.7302 26.4461 22.8591L27.1725 23.5464C28.3336 22.3193 29.2233 20.8948 29.8414 19.2772L28.9073 18.9203ZM26.4461 22.8591C25.3803 23.9855 24.1078 24.865 22.6233 25.4978L23.0154 26.4177C24.6215 25.7331 26.009 24.776 27.1725 23.5464L26.4461 22.8591ZM22.6233 25.4978C21.1467 26.1271 19.5044 26.4457 17.6893 26.4457V27.4457C19.6235 27.4457 21.4012 27.1057 23.0154 26.4177L22.6233 25.4978ZM17.6893 26.4457C15.8087 26.4457 14.1144 26.1264 12.5994 25.4961L12.2153 26.4194C13.8669 27.1065 15.6939 27.4457 17.6893 27.4457V26.4457ZM12.6038 25.498C11.0929 24.8522 9.79415 23.9591 8.70247 22.819L7.98017 23.5105C9.1685 24.7517 10.5804 25.7207 12.2108 26.4175L12.6038 25.498ZM8.70247 22.819C7.60908 21.677 6.77033 20.3528 6.1856 18.8422L5.25304 19.2032C5.88431 20.834 6.79356 22.2712 7.98017 23.5105L8.70247 22.819ZM6.18609 18.8435C5.60151 17.3212 5.30732 15.685 5.30732 13.9307H4.30732C4.30732 15.7992 4.62113 17.5577 5.25255 19.202L6.18609 18.8435ZM5.30732 13.9307C5.30732 12.1896 5.60137 10.5665 6.1856 9.05724L5.25304 8.69625C4.62127 10.3283 4.30732 12.0746 4.30732 13.9307H5.30732ZM6.18609 9.05598C6.77082 7.53324 7.60904 6.21042 8.70062 5.08245L7.98202 4.38703C6.7936 5.61507 5.88382 7.05358 5.25255 8.69751L6.18609 9.05598ZM8.70247 5.08053C9.79346 3.94106 11.0911 3.05489 12.6007 2.42184L12.214 1.49965C10.5822 2.18394 9.16918 3.1471 7.98017 4.38896L8.70247 5.08053ZM12.6025 2.42108C14.1167 1.77904 15.8099 1.45374 17.6893 1.45374V0.453744C15.6928 0.453744 13.8646 0.799778 12.2121 1.50042L12.6025 2.42108ZM17.6893 1.45374C19.2381 1.45374 20.5837 1.62116 21.7326 1.9477L22.006 0.985793C20.7483 0.628325 19.3072 0.453744 17.6893 0.453744V1.45374ZM21.7339 1.94807C22.911 2.27913 23.9075 2.71637 24.7312 3.25355L25.2775 2.41594C24.3531 1.81312 23.2596 1.33836 22.0047 0.98542L21.7339 1.94807ZM24.7312 3.25355C25.5731 3.8026 26.2789 4.40141 26.8536 5.04793L27.601 4.38356C26.9597 3.66208 26.1836 3.00689 25.2775 2.41594L24.7312 3.25355ZM26.8567 5.05139C27.4486 5.70492 27.9366 6.34039 28.3238 6.95749L29.1709 6.426C28.7474 5.7511 28.222 5.06924 27.5979 4.38011L26.8567 5.05139ZM28.534 6.23955L23.138 8.78555L23.5647 9.68994L28.9607 7.14394L28.534 6.23955ZM23.7704 8.96502C23.2091 8.10253 22.4481 7.35892 21.4993 6.73082L20.9473 7.56467C21.7972 8.12724 22.4549 8.77696 22.9323 9.51047L23.7704 8.96502ZM21.502 6.73264C20.5073 6.06475 19.2217 5.75475 17.6893 5.75475V6.75475C19.0956 6.75475 20.166 7.04008 20.9446 7.56286L21.502 6.73264ZM17.6893 5.75475C16.5955 5.75475 15.5784 5.97127 14.6454 6.41034L15.0712 7.31516C15.8609 6.94355 16.7311 6.75475 17.6893 6.75475V5.75475ZM14.6428 6.41157C13.7327 6.84626 12.9434 7.44512 12.278 8.20549L13.0306 8.864C13.6066 8.2057 14.2866 7.6899 15.0738 7.31393L14.6428 6.41157ZM12.281 8.20214C11.6155 8.94917 11.1027 9.82184 10.7406 10.8144L11.68 11.1571C12.0019 10.275 12.4519 9.51365 13.0277 8.86735L12.281 8.20214ZM10.7393 10.818C10.3897 11.7996 10.2163 12.8383 10.2163 13.9307H11.2163C11.2163 12.9459 11.3723 12.0213 11.6813 11.1535L10.7393 10.818ZM10.2163 13.9307C10.2163 15.0352 10.3895 16.0803 10.7393 17.0625L11.6813 16.727C11.3725 15.8599 11.2163 14.929 11.2163 13.9307H10.2163ZM10.7414 17.0682C11.1035 18.0473 11.6154 18.9177 12.278 19.675L13.0306 19.0165C12.4519 18.3551 12.0011 17.5915 11.6793 16.7213L10.7414 17.0682ZM12.278 19.675C12.9434 20.4354 13.7327 21.0342 14.6428 21.4689L15.0738 20.5666C14.2866 20.1906 13.6066 19.6748 13.0306 19.0165L12.278 19.675ZM14.6509 21.4727C15.5827 21.8975 16.5978 22.1067 17.6893 22.1067V21.1067C16.7288 21.1067 15.8566 20.9234 15.0657 20.5628L14.6509 21.4727ZM17.6893 22.1067C18.6306 22.1067 19.4985 21.9874 20.2885 21.7423L19.9921 20.7872C19.3128 20.9981 18.5467 21.1067 17.6893 21.1067V22.1067ZM20.2885 21.7423C21.0763 21.4978 21.7679 21.1406 22.3549 20.6654L21.7257 19.8881C21.2488 20.2742 20.6737 20.5757 19.9921 20.7872L20.2885 21.7423ZM22.3504 20.669C22.9471 20.1971 23.4182 19.6366 23.7566 18.988L22.87 18.5255C22.6004 19.0422 22.2228 19.495 21.7302 19.8845L22.3504 20.669ZM23.7548 18.9916C24.1046 18.3339 24.3124 17.6163 24.3813 16.8442L23.3853 16.7553C23.3276 17.4018 23.1554 17.9889 22.8719 18.5219L23.7548 18.9916ZM23.8833 16.2997H17.4993V17.2997H23.8833V16.2997ZM17.9993 16.7997V12.4677H16.9993V16.7997H17.9993Z" fill="white" mask="url(#path-6-outside-2_35_95)"/>
</g>
<g filter="url(#filter5_d_35_95)">
<g style="mix-blend-mode:lighten" filter="url(#filter6_d_35_95)">
<ellipse cx="35.5" cy="33.472" rx="12.9349" ry="10.819" stroke="white" stroke-width="3" shape-rendering="crispEdges"/>
</g>
<ellipse cx="35.5" cy="33.4721" rx="8.92065" ry="7.46135" fill="#00A4C8"/>
<g style="mix-blend-mode:darken" filter="url(#filter7_d_35_95)">
<ellipse cx="35.5" cy="33.4721" rx="5.79842" ry="4.84988" fill="black"/>
<ellipse cx="35.5" cy="33.4721" rx="5.79842" ry="4.84988" stroke="white" stroke-width="3"/>
</g>
</g>
<g style="mix-blend-mode:darken" filter="url(#filter8_d_35_95)">
<mask id="path-11-outside-3_35_95" maskUnits="userSpaceOnUse" x="4" y="20.1428" width="27" height="28" fill="black">
<rect fill="white" x="4" y="20.1428" width="27" height="28"/>
<path d="M17.4993 33.1208H30.2863V34.7168C30.2863 36.5155 29.9823 38.1938 29.3743 39.7518C28.779 41.3098 27.924 42.6778 26.8093 43.8558C25.6947 45.0338 24.3647 45.9522 22.8193 46.6108C21.274 47.2695 19.564 47.5988 17.6893 47.5988C15.7513 47.5988 13.9907 47.2695 12.4073 46.6108C10.8367 45.9395 9.48132 45.0085 8.34132 43.8178C7.20132 42.6272 6.32732 41.2465 5.71932 39.6758C5.11132 38.0925 4.80732 36.3952 4.80732 34.5838C4.80732 32.7852 5.11132 31.1005 5.71932 29.5298C6.32732 27.9465 7.20132 26.5658 8.34132 25.3878C9.48132 24.1972 10.8367 23.2725 12.4073 22.6138C13.9907 21.9425 15.7513 21.6068 17.6893 21.6068C19.2727 21.6068 20.666 21.7778 21.8693 22.1198C23.0853 22.4618 24.1303 22.9178 25.0043 23.4878C25.8783 24.0578 26.6193 24.6848 27.2273 25.3688C27.8353 26.0402 28.342 26.6988 28.7473 27.3448L23.3513 29.8908C22.832 29.0928 22.1227 28.3962 21.2233 27.8008C20.3367 27.2055 19.1587 26.9078 17.6893 26.9078C16.6633 26.9078 15.7197 27.1105 14.8583 27.5158C14.0097 27.9212 13.275 28.4785 12.6543 29.1878C12.0337 29.8845 11.5523 30.7015 11.2103 31.6388C10.881 32.5635 10.7163 33.5452 10.7163 34.5838C10.7163 35.6352 10.881 36.6232 11.2103 37.5478C11.5523 38.4725 12.0337 39.2895 12.6543 39.9988C13.275 40.7082 14.0097 41.2655 14.8583 41.6708C15.7197 42.0635 16.6633 42.2598 17.6893 42.2598C18.5887 42.2598 19.4057 42.1458 20.1403 41.9178C20.875 41.6898 21.5083 41.3605 22.0403 40.9298C22.585 40.4992 23.0093 39.9925 23.3133 39.4098C23.63 38.8145 23.82 38.1622 23.8833 37.4528H17.4993V33.1208Z"/>
</mask>
<path d="M17.4993 33.1208H30.2863V34.7168C30.2863 36.5155 29.9823 38.1938 29.3743 39.7518C28.779 41.3098 27.924 42.6778 26.8093 43.8558C25.6947 45.0338 24.3647 45.9522 22.8193 46.6108C21.274 47.2695 19.564 47.5988 17.6893 47.5988C15.7513 47.5988 13.9907 47.2695 12.4073 46.6108C10.8367 45.9395 9.48132 45.0085 8.34132 43.8178C7.20132 42.6272 6.32732 41.2465 5.71932 39.6758C5.11132 38.0925 4.80732 36.3952 4.80732 34.5838C4.80732 32.7852 5.11132 31.1005 5.71932 29.5298C6.32732 27.9465 7.20132 26.5658 8.34132 25.3878C9.48132 24.1972 10.8367 23.2725 12.4073 22.6138C13.9907 21.9425 15.7513 21.6068 17.6893 21.6068C19.2727 21.6068 20.666 21.7778 21.8693 22.1198C23.0853 22.4618 24.1303 22.9178 25.0043 23.4878C25.8783 24.0578 26.6193 24.6848 27.2273 25.3688C27.8353 26.0402 28.342 26.6988 28.7473 27.3448L23.3513 29.8908C22.832 29.0928 22.1227 28.3962 21.2233 27.8008C20.3367 27.2055 19.1587 26.9078 17.6893 26.9078C16.6633 26.9078 15.7197 27.1105 14.8583 27.5158C14.0097 27.9212 13.275 28.4785 12.6543 29.1878C12.0337 29.8845 11.5523 30.7015 11.2103 31.6388C10.881 32.5635 10.7163 33.5452 10.7163 34.5838C10.7163 35.6352 10.881 36.6232 11.2103 37.5478C11.5523 38.4725 12.0337 39.2895 12.6543 39.9988C13.275 40.7082 14.0097 41.2655 14.8583 41.6708C15.7197 42.0635 16.6633 42.2598 17.6893 42.2598C18.5887 42.2598 19.4057 42.1458 20.1403 41.9178C20.875 41.6898 21.5083 41.3605 22.0403 40.9298C22.585 40.4992 23.0093 39.9925 23.3133 39.4098C23.63 38.8145 23.82 38.1622 23.8833 37.4528H17.4993V33.1208Z" fill="#30C1FF"/>
<path d="M17.4993 33.1208V32.6208H16.9993V33.1208H17.4993ZM30.2863 33.1208H30.7863V32.6208H30.2863V33.1208ZM29.3743 39.7518L28.9085 39.57L28.9073 39.5734L29.3743 39.7518ZM26.8093 43.8558L26.4461 43.5122L26.4461 43.5122L26.8093 43.8558ZM22.8193 46.6108L22.6233 46.1509L22.6233 46.1509L22.8193 46.6108ZM12.4073 46.6108L12.2108 47.0706L12.2153 47.0725L12.4073 46.6108ZM8.34132 43.8178L8.70247 43.472L8.70247 43.472L8.34132 43.8178ZM5.71932 39.6758L5.25255 39.8551L5.25304 39.8563L5.71932 39.6758ZM5.71932 29.5298L6.18561 29.7103L6.18609 29.7091L5.71932 29.5298ZM8.34132 25.3878L8.70063 25.7355L8.70247 25.7336L8.34132 25.3878ZM12.4073 22.6138L12.6007 23.0749L12.6025 23.0742L12.4073 22.6138ZM21.8693 22.1198L21.7326 22.6008L21.7339 22.6011L21.8693 22.1198ZM25.0043 23.4878L24.7312 23.9066L24.7312 23.9066L25.0043 23.4878ZM27.2273 25.3688L26.8536 25.701L26.8567 25.7045L27.2273 25.3688ZM28.7473 27.3448L28.9607 27.797L29.4704 27.5565L29.1709 27.0791L28.7473 27.3448ZM23.3513 29.8908L22.9323 30.1635L23.1702 30.5292L23.5647 30.343L23.3513 29.8908ZM21.2233 27.8008L20.9446 28.2159L20.9473 28.2177L21.2233 27.8008ZM14.8583 27.5158L14.6454 27.0634L14.6428 27.0646L14.8583 27.5158ZM12.6543 29.1878L13.0277 29.5204L13.0306 29.5171L12.6543 29.1878ZM11.2103 31.6388L10.7406 31.4674L10.7393 31.4711L11.2103 31.6388ZM11.2103 37.5478L10.7393 37.7156L10.7414 37.7213L11.2103 37.5478ZM14.8583 41.6708L14.6428 42.1221L14.6509 42.1258L14.8583 41.6708ZM20.1403 41.9178L20.2885 42.3954L20.2885 42.3954L20.1403 41.9178ZM22.0403 40.9298L21.7302 40.5376L21.7257 40.5412L22.0403 40.9298ZM23.3133 39.4098L22.8719 39.175L22.87 39.1785L23.3133 39.4098ZM23.8833 37.4528L24.3813 37.4973L24.43 36.9528H23.8833V37.4528ZM17.4993 37.4528H16.9993V37.9528H17.4993V37.4528ZM17.4993 33.6208H30.2863V32.6208H17.4993V33.6208ZM29.7863 33.1208V34.7168H30.7863V33.1208H29.7863ZM29.7863 34.7168C29.7863 36.458 29.4923 38.0742 28.9085 39.5701L29.8401 39.9336C30.4724 38.3134 30.7863 36.573 30.7863 34.7168H29.7863ZM28.9073 39.5734C28.3347 41.0718 27.5144 42.3832 26.4461 43.5122L27.1725 44.1995C28.3336 42.9724 29.2233 41.5479 29.8414 39.9303L28.9073 39.5734ZM26.4461 43.5122C25.3803 44.6386 24.1078 45.5181 22.6233 46.1509L23.0154 47.0708C24.6215 46.3862 26.009 45.4291 27.1725 44.1995L26.4461 43.5122ZM22.6233 46.1509C21.1467 46.7802 19.5044 47.0988 17.6893 47.0988V48.0988C19.6235 48.0988 21.4012 47.7588 23.0154 47.0708L22.6233 46.1509ZM17.6893 47.0988C15.8087 47.0988 14.1144 46.7794 12.5994 46.1492L12.2153 47.0725C13.8669 47.7595 15.6939 48.0988 17.6893 48.0988V47.0988ZM12.6038 46.1511C11.0929 45.5052 9.79415 44.6122 8.70247 43.472L7.98017 44.1636C9.1685 45.4048 10.5804 46.3737 12.2108 47.0706L12.6038 46.1511ZM8.70247 43.472C7.60908 42.33 6.77033 41.0059 6.1856 39.4953L5.25304 39.8563C5.88431 41.4871 6.79356 42.9243 7.98017 44.1636L8.70247 43.472ZM6.18609 39.4966C5.60151 37.9742 5.30732 36.3381 5.30732 34.5838H4.30732C4.30732 36.4522 4.62113 38.2107 5.25255 39.8551L6.18609 39.4966ZM5.30732 34.5838C5.30732 32.8427 5.60137 31.2196 6.1856 29.7103L5.25304 29.3493C4.62127 30.9814 4.30732 32.7277 4.30732 34.5838H5.30732ZM6.18609 29.7091C6.77082 28.1863 7.60904 26.8635 8.70062 25.7355L7.98202 25.0401C6.7936 26.2681 5.88382 27.7067 5.25255 29.3506L6.18609 29.7091ZM8.70247 25.7336C9.79346 24.5941 11.0911 23.708 12.6007 23.0749L12.214 22.1527C10.5822 22.837 9.16918 23.8002 7.98017 25.042L8.70247 25.7336ZM12.6025 23.0742C14.1167 22.4321 15.8099 22.1068 17.6893 22.1068V21.1068C15.6928 21.1068 13.8646 21.4529 12.2121 22.1535L12.6025 23.0742ZM17.6893 22.1068C19.2381 22.1068 20.5837 22.2742 21.7326 22.6008L22.006 21.6389C20.7483 21.2814 19.3072 21.1068 17.6893 21.1068V22.1068ZM21.7339 22.6011C22.911 22.9322 23.9075 23.3694 24.7312 23.9066L25.2775 23.069C24.3531 22.4662 23.2596 21.9914 22.0047 21.6385L21.7339 22.6011ZM24.7312 23.9066C25.5731 24.4557 26.2789 25.0545 26.8536 25.701L27.601 25.0366C26.9597 24.3152 26.1836 23.66 25.2775 23.069L24.7312 23.9066ZM26.8567 25.7045C27.4486 26.358 27.9366 26.9935 28.3238 27.6106L29.1709 27.0791C28.7474 26.4042 28.222 25.7223 27.5979 25.0332L26.8567 25.7045ZM28.534 26.8926L23.138 29.4386L23.5647 30.343L28.9607 27.797L28.534 26.8926ZM23.7704 29.6181C23.2091 28.7556 22.4481 28.012 21.4993 27.3839L20.9473 28.2177C21.7972 28.7803 22.4549 29.43 22.9323 30.1635L23.7704 29.6181ZM21.502 27.3857C20.5073 26.7178 19.2217 26.4078 17.6893 26.4078V27.4078C19.0956 27.4078 20.166 27.6932 20.9446 28.2159L21.502 27.3857ZM17.6893 26.4078C16.5955 26.4078 15.5784 26.6243 14.6454 27.0634L15.0712 27.9682C15.8609 27.5966 16.7311 27.4078 17.6893 27.4078V26.4078ZM14.6428 27.0646C13.7327 27.4993 12.9434 28.0982 12.278 28.8586L13.0306 29.5171C13.6066 28.8588 14.2866 28.343 15.0738 27.967L14.6428 27.0646ZM12.281 28.8552C11.6155 29.6022 11.1027 30.4749 10.7406 31.4674L11.68 31.8102C12.0019 30.9281 12.4519 30.1667 13.0277 29.5204L12.281 28.8552ZM10.7393 31.4711C10.3897 32.4526 10.2163 33.4913 10.2163 34.5838H11.2163C11.2163 33.599 11.3723 32.6743 11.6813 31.8066L10.7393 31.4711ZM10.2163 34.5838C10.2163 35.6882 10.3895 36.7333 10.7393 37.7156L11.6813 37.3801C11.3725 36.513 11.2163 35.5821 11.2163 34.5838H10.2163ZM10.7414 37.7213C11.1035 38.7004 11.6154 39.5708 12.278 40.3281L13.0306 39.6696C12.4519 39.0082 12.0011 38.2446 11.6793 37.3744L10.7414 37.7213ZM12.278 40.3281C12.9434 41.0884 13.7327 41.6873 14.6428 42.122L15.0738 41.2196C14.2866 40.8437 13.6066 40.3279 13.0306 39.6696L12.278 40.3281ZM14.6509 42.1258C15.5827 42.5506 16.5978 42.7598 17.6893 42.7598V41.7598C16.7288 41.7598 15.8566 41.5764 15.0657 41.2159L14.6509 42.1258ZM17.6893 42.7598C18.6306 42.7598 19.4985 42.6405 20.2885 42.3954L19.9921 41.4403C19.3128 41.6511 18.5467 41.7598 17.6893 41.7598V42.7598ZM20.2885 42.3954C21.0763 42.1509 21.7679 41.7937 22.3549 41.3184L21.7257 40.5412C21.2488 40.9273 20.6737 41.2288 19.9921 41.4403L20.2885 42.3954ZM22.3504 41.322C22.9471 40.8502 23.4182 40.2897 23.7566 39.6411L22.87 39.1785C22.6004 39.6953 22.2228 40.1481 21.7302 40.5376L22.3504 41.322ZM23.7548 39.6446C24.1046 38.987 24.3124 38.2694 24.3813 37.4973L23.3853 37.4084C23.3276 38.0549 23.1554 38.642 22.8719 39.175L23.7548 39.6446ZM23.8833 36.9528H17.4993V37.9528H23.8833V36.9528ZM17.9993 37.4528V33.1208H16.9993V37.4528H17.9993Z" fill="white" mask="url(#path-11-outside-3_35_95)"/>
</g>
<g style="mix-blend-mode:color-dodge" filter="url(#filter9_d_35_95)">
<mask id="path-13-outside-4_35_95" maskUnits="userSpaceOnUse" x="4" y="18.5" width="27" height="28" fill="black">
<rect fill="white" x="4" y="18.5" width="27" height="28"/>
<path d="M17.4993 31.478H30.2863V33.074C30.2863 34.8727 29.9823 36.551 29.3743 38.109C28.779 39.667 27.924 41.035 26.8093 42.213C25.6947 43.391 24.3647 44.3093 22.8193 44.968C21.274 45.6267 19.564 45.956 17.6893 45.956C15.7513 45.956 13.9907 45.6267 12.4073 44.968C10.8367 44.2967 9.48132 43.3657 8.34132 42.175C7.20132 40.9843 6.32732 39.6037 5.71932 38.033C5.11132 36.4497 4.80732 34.7523 4.80732 32.941C4.80732 31.1423 5.11132 29.4577 5.71932 27.887C6.32732 26.3037 7.20132 24.923 8.34132 23.745C9.48132 22.5543 10.8367 21.6297 12.4073 20.971C13.9907 20.2997 15.7513 19.964 17.6893 19.964C19.2727 19.964 20.666 20.135 21.8693 20.477C23.0853 20.819 24.1303 21.275 25.0043 21.845C25.8783 22.415 26.6193 23.042 27.2273 23.726C27.8353 24.3973 28.342 25.056 28.7473 25.702L23.3513 28.248C22.832 27.45 22.1227 26.7533 21.2233 26.158C20.3367 25.5627 19.1587 25.265 17.6893 25.265C16.6633 25.265 15.7197 25.4677 14.8583 25.873C14.0097 26.2783 13.275 26.8357 12.6543 27.545C12.0337 28.2417 11.5523 29.0587 11.2103 29.996C10.881 30.9207 10.7163 31.9023 10.7163 32.941C10.7163 33.9923 10.881 34.9803 11.2103 35.905C11.5523 36.8297 12.0337 37.6467 12.6543 38.356C13.275 39.0653 14.0097 39.6227 14.8583 40.028C15.7197 40.4207 16.6633 40.617 17.6893 40.617C18.5887 40.617 19.4057 40.503 20.1403 40.275C20.875 40.047 21.5083 39.7177 22.0403 39.287C22.585 38.8563 23.0093 38.3497 23.3133 37.767C23.63 37.1717 23.82 36.5193 23.8833 35.81H17.4993V31.478Z"/>
</mask>
<path d="M17.4993 31.478H30.2863V33.074C30.2863 34.8727 29.9823 36.551 29.3743 38.109C28.779 39.667 27.924 41.035 26.8093 42.213C25.6947 43.391 24.3647 44.3093 22.8193 44.968C21.274 45.6267 19.564 45.956 17.6893 45.956C15.7513 45.956 13.9907 45.6267 12.4073 44.968C10.8367 44.2967 9.48132 43.3657 8.34132 42.175C7.20132 40.9843 6.32732 39.6037 5.71932 38.033C5.11132 36.4497 4.80732 34.7523 4.80732 32.941C4.80732 31.1423 5.11132 29.4577 5.71932 27.887C6.32732 26.3037 7.20132 24.923 8.34132 23.745C9.48132 22.5543 10.8367 21.6297 12.4073 20.971C13.9907 20.2997 15.7513 19.964 17.6893 19.964C19.2727 19.964 20.666 20.135 21.8693 20.477C23.0853 20.819 24.1303 21.275 25.0043 21.845C25.8783 22.415 26.6193 23.042 27.2273 23.726C27.8353 24.3973 28.342 25.056 28.7473 25.702L23.3513 28.248C22.832 27.45 22.1227 26.7533 21.2233 26.158C20.3367 25.5627 19.1587 25.265 17.6893 25.265C16.6633 25.265 15.7197 25.4677 14.8583 25.873C14.0097 26.2783 13.275 26.8357 12.6543 27.545C12.0337 28.2417 11.5523 29.0587 11.2103 29.996C10.881 30.9207 10.7163 31.9023 10.7163 32.941C10.7163 33.9923 10.881 34.9803 11.2103 35.905C11.5523 36.8297 12.0337 37.6467 12.6543 38.356C13.275 39.0653 14.0097 39.6227 14.8583 40.028C15.7197 40.4207 16.6633 40.617 17.6893 40.617C18.5887 40.617 19.4057 40.503 20.1403 40.275C20.875 40.047 21.5083 39.7177 22.0403 39.287C22.585 38.8563 23.0093 38.3497 23.3133 37.767C23.63 37.1717 23.82 36.5193 23.8833 35.81H17.4993V31.478Z" fill="white"/>
<path d="M17.4993 31.478V30.978H16.9993V31.478H17.4993ZM30.2863 31.478H30.7863V30.978H30.2863V31.478ZM29.3743 38.109L28.9085 37.9272L28.9073 37.9305L29.3743 38.109ZM26.8093 42.213L26.4461 41.8693L26.4461 41.8693L26.8093 42.213ZM22.8193 44.968L22.6233 44.508L22.6233 44.508L22.8193 44.968ZM12.4073 44.968L12.2108 45.4278L12.2153 45.4296L12.4073 44.968ZM8.34132 42.175L8.70247 41.8292L8.70247 41.8292L8.34132 42.175ZM5.71932 38.033L5.25255 38.2122L5.25304 38.2135L5.71932 38.033ZM5.71932 27.887L6.18561 28.0675L6.18609 28.0662L5.71932 27.887ZM8.34132 23.745L8.70063 24.0927L8.70247 24.0908L8.34132 23.745ZM12.4073 20.971L12.6007 21.4321L12.6025 21.4313L12.4073 20.971ZM21.8693 20.477L21.7326 20.958L21.7339 20.9583L21.8693 20.477ZM25.0043 21.845L24.7312 22.2638L24.7312 22.2638L25.0043 21.845ZM27.2273 23.726L26.8536 24.0582L26.8567 24.0616L27.2273 23.726ZM28.7473 25.702L28.9607 26.1542L29.4704 25.9137L29.1709 25.4363L28.7473 25.702ZM23.3513 28.248L22.9323 28.5207L23.1702 28.8863L23.5647 28.7002L23.3513 28.248ZM21.2233 26.158L20.9446 26.5731L20.9473 26.5749L21.2233 26.158ZM14.8583 25.873L14.6454 25.4206L14.6428 25.4218L14.8583 25.873ZM12.6543 27.545L13.0277 27.8776L13.0306 27.8743L12.6543 27.545ZM11.2103 29.996L10.7406 29.8246L10.7393 29.8282L11.2103 29.996ZM11.2103 35.905L10.7393 36.0728L10.7414 36.0784L11.2103 35.905ZM14.8583 40.028L14.6428 40.4793L14.6509 40.483L14.8583 40.028ZM20.1403 40.275L20.2885 40.7525L20.2885 40.7525L20.1403 40.275ZM22.0403 39.287L21.7302 38.8948L21.7257 38.8984L22.0403 39.287ZM23.3133 37.767L22.8719 37.5322L22.87 37.5357L23.3133 37.767ZM23.8833 35.81L24.3813 35.8545L24.43 35.31H23.8833V35.81ZM17.4993 35.81H16.9993V36.31H17.4993V35.81ZM17.4993 31.978H30.2863V30.978H17.4993V31.978ZM29.7863 31.478V33.074H30.7863V31.478H29.7863ZM29.7863 33.074C29.7863 34.8152 29.4923 36.4314 28.9085 37.9272L29.8401 38.2908C30.4724 36.6706 30.7863 34.9301 30.7863 33.074H29.7863ZM28.9073 37.9305C28.3347 39.429 27.5144 40.7404 26.4461 41.8693L27.1725 42.5567C28.3336 41.3296 29.2233 39.905 29.8414 38.2875L28.9073 37.9305ZM26.4461 41.8693C25.3803 42.9957 24.1078 43.8753 22.6233 44.508L23.0154 45.428C24.6215 44.7434 26.009 43.7863 27.1725 42.5567L26.4461 41.8693ZM22.6233 44.508C21.1467 45.1374 19.5044 45.456 17.6893 45.456V46.456C19.6235 46.456 21.4012 46.116 23.0154 45.428L22.6233 44.508ZM17.6893 45.456C15.8087 45.456 14.1144 45.1366 12.5994 44.5064L12.2153 45.4296C13.8669 46.1167 15.6939 46.456 17.6893 46.456V45.456ZM12.6038 44.5082C11.0929 43.8624 9.79415 42.9694 8.70247 41.8292L7.98017 42.5208C9.1685 43.7619 10.5804 44.7309 12.2108 45.4278L12.6038 44.5082ZM8.70247 41.8292C7.60908 40.6872 6.77033 39.363 6.1856 37.8525L5.25304 38.2135C5.88431 39.8443 6.79356 41.2814 7.98017 42.5208L8.70247 41.8292ZM6.18609 37.8538C5.60151 36.3314 5.30732 34.6953 5.30732 32.941H4.30732C4.30732 34.8094 4.62113 36.5679 5.25255 38.2122L6.18609 37.8538ZM5.30732 32.941C5.30732 31.1998 5.60137 29.5768 6.1856 28.0675L5.25304 27.7065C4.62127 29.3386 4.30732 31.0848 4.30732 32.941H5.30732ZM6.18609 28.0662C6.77082 26.5435 7.60904 25.2207 8.70062 24.0927L7.98202 23.3973C6.7936 24.6253 5.88382 26.0638 5.25255 27.7078L6.18609 28.0662ZM8.70247 24.0908C9.79346 22.9513 11.0911 22.0651 12.6007 21.4321L12.214 20.5099C10.5822 21.1942 9.16918 22.1574 7.98017 23.3992L8.70247 24.0908ZM12.6025 21.4313C14.1167 20.7893 15.8099 20.464 17.6893 20.464V19.464C15.6928 19.464 13.8646 19.81 12.2121 20.5107L12.6025 21.4313ZM17.6893 20.464C19.2381 20.464 20.5837 20.6314 21.7326 20.958L22.006 19.996C20.7483 19.6386 19.3072 19.464 17.6893 19.464V20.464ZM21.7339 20.9583C22.911 21.2894 23.9075 21.7266 24.7312 22.2638L25.2775 21.4262C24.3531 20.8234 23.2596 20.3486 22.0047 19.9957L21.7339 20.9583ZM24.7312 22.2638C25.5731 22.8129 26.2789 23.4117 26.8536 24.0582L27.601 23.3938C26.9597 22.6723 26.1836 22.0171 25.2775 21.4262L24.7312 22.2638ZM26.8567 24.0616C27.4486 24.7152 27.9366 25.3506 28.3238 25.9677L29.1709 25.4363C28.7474 24.7614 28.222 24.0795 27.5979 23.3904L26.8567 24.0616ZM28.534 25.2498L23.138 27.7958L23.5647 28.7002L28.9607 26.1542L28.534 25.2498ZM23.7704 27.9753C23.2091 27.1128 22.4481 26.3692 21.4993 25.7411L20.9473 26.5749C21.7972 27.1375 22.4549 27.7872 22.9323 28.5207L23.7704 27.9753ZM21.502 25.7429C20.5073 25.075 19.2217 24.765 17.6893 24.765V25.765C19.0956 25.765 20.166 26.0503 20.9446 26.5731L21.502 25.7429ZM17.6893 24.765C16.5955 24.765 15.5784 24.9815 14.6454 25.4206L15.0712 26.3254C15.8609 25.9538 16.7311 25.765 17.6893 25.765V24.765ZM14.6428 25.4218C13.7327 25.8565 12.9434 26.4554 12.278 27.2157L13.0306 27.8743C13.6066 27.216 14.2866 26.7002 15.0738 26.3242L14.6428 25.4218ZM12.281 27.2124C11.6155 27.9594 11.1027 28.8321 10.7406 29.8246L11.68 30.1674C12.0019 29.2852 12.4519 28.5239 13.0277 27.8776L12.281 27.2124ZM10.7393 29.8282C10.3897 30.8098 10.2163 31.8485 10.2163 32.941H11.2163C11.2163 31.9561 11.3723 31.0315 11.6813 30.1638L10.7393 29.8282ZM10.2163 32.941C10.2163 34.0454 10.3895 35.0905 10.7393 36.0728L11.6813 35.7372C11.3725 34.8701 11.2163 33.9392 11.2163 32.941H10.2163ZM10.7414 36.0784C11.1035 37.0576 11.6154 37.928 12.278 38.6853L13.0306 38.0267C12.4519 37.3654 12.0011 36.6017 11.6793 35.7316L10.7414 36.0784ZM12.278 38.6853C12.9434 39.4456 13.7327 40.0445 14.6428 40.4792L15.0738 39.5768C14.2866 39.2008 13.6066 38.685 13.0306 38.0267L12.278 38.6853ZM14.6509 40.483C15.5827 40.9077 16.5978 41.117 17.6893 41.117V40.117C16.7288 40.117 15.8566 39.9336 15.0657 39.573L14.6509 40.483ZM17.6893 41.117C18.6306 41.117 19.4985 40.9977 20.2885 40.7525L19.9921 39.7975C19.3128 40.0083 18.5467 40.117 17.6893 40.117V41.117ZM20.2885 40.7525C21.0763 40.508 21.7679 40.1509 22.3549 39.6756L21.7257 38.8984C21.2488 39.2845 20.6737 39.586 19.9921 39.7975L20.2885 40.7525ZM22.3504 39.6792C22.9471 39.2074 23.4182 38.6469 23.7566 37.9983L22.87 37.5357C22.6004 38.0525 22.2228 38.5053 21.7302 38.8948L22.3504 39.6792ZM23.7548 38.0018C24.1046 37.3442 24.3124 36.6266 24.3813 35.8545L23.3853 35.7655C23.3276 36.4121 23.1554 36.9992 22.8719 37.5322L23.7548 38.0018ZM23.8833 35.31H17.4993V36.31H23.8833V35.31ZM17.9993 35.81V31.478H16.9993V35.81H17.9993Z" fill="white" mask="url(#path-13-outside-4_35_95)"/>
</g>
<defs>
<filter id="filter0_d_35_95" x="17.0651" y="0.5" width="36.8699" height="32.6379" filterUnits="userSpaceOnUse" color-interpolation-filters="sRGB">
<feFlood flood-opacity="0" result="BackgroundImageFix"/>
<feColorMatrix in="SourceAlpha" type="matrix" values="0 0 0 0 0 0 0 0 0 0 0 0 0 0 0 0 0 0 127 0" result="hardAlpha"/>
<feOffset dy="4"/>
<feGaussianBlur stdDeviation="2"/>
<feComposite in2="hardAlpha" operator="out"/>
<feColorMatrix type="matrix" values="0 0 0 0 0 0 0 0 0 0 0 0 0 0 0 0 0 0 0.25 0"/>
<feBlend mode="normal" in2="BackgroundImageFix" result="effect1_dropShadow_35_95"/>
<feBlend mode="normal" in="SourceGraphic" in2="effect1_dropShadow_35_95" result="shape"/>
</filter>
<filter id="filter1_d_35_95" x="17.0651" y="0.5" width="36.8699" height="32.6379" filterUnits="userSpaceOnUse" color-interpolation-filters="sRGB">
<feFlood flood-opacity="0" result="BackgroundImageFix"/>
<feColorMatrix in="SourceAlpha" type="matrix" values="0 0 0 0 0 0 0 0 0 0 0 0 0 0 0 0 0 0 127 0" result="hardAlpha"/>
<feOffset dy="4"/>
<feGaussianBlur stdDeviation="2"/>
<feComposite in2="hardAlpha" operator="out"/>
<feColorMatrix type="matrix" values="0 0 0 0 0 0 0 0 0 0 0 0 0 0 0 0 0 0 0.25 0"/>
<feBlend mode="normal" in2="BackgroundImageFix" result="effect1_dropShadow_35_95"/>
<feBlend mode="normal" in="SourceGraphic" in2="effect1_dropShadow_35_95" result="shape"/>
</filter>
<filter id="filter2_d_35_95" x="24.2016" y="6.46912" width="22.5968" height="20.6998" filterUnits="userSpaceOnUse" color-interpolation-filters="sRGB">
<feFlood flood-opacity="0" result="BackgroundImageFix"/>
<feColorMatrix in="SourceAlpha" type="matrix" values="0 0 0 0 0 0 0 0 0 0 0 0 0 0 0 0 0 0 127 0" result="hardAlpha"/>
<feOffset dy="4"/>
<feGaussianBlur stdDeviation="2"/>
<feComposite in2="hardAlpha" operator="out"/>
<feColorMatrix type="matrix" values="0 0 0 0 0 0 0 0 0 0 0 0 0 0 0 0 0 0 0.25 0"/>
<feBlend mode="normal" in2="BackgroundImageFix" result="effect1_dropShadow_35_95"/>
<feBlend mode="normal" in="SourceGraphic" in2="effect1_dropShadow_35_95" result="shape"/>
</filter>
<filter id="filter3_d_35_95" x="0.807327" y="0.953735" width="33.479" height="33.992" filterUnits="userSpaceOnUse" color-interpolation-filters="sRGB">
<feFlood flood-opacity="0" result="BackgroundImageFix"/>
<feColorMatrix in="SourceAlpha" type="matrix" values="0 0 0 0 0 0 0 0 0 0 0 0 0 0 0 0 0 0 127 0" result="hardAlpha"/>
<feOffset dy="4"/>
<feGaussianBlur stdDeviation="2"/>
<feComposite in2="hardAlpha" operator="out"/>
<feColorMatrix type="matrix" values="0 0 0 0 0 0 0 0 0 0 0 0 0 0 0 0 0 0 0.25 0"/>
<feBlend mode="normal" in2="BackgroundImageFix" result="effect1_dropShadow_35_95"/>
<feBlend mode="normal" in="SourceGraphic" in2="effect1_dropShadow_35_95" result="shape"/>
</filter>
<filter id="filter4_d_35_95" x="0.807327" y="0.953735" width="33.479" height="33.992" filterUnits="userSpaceOnUse" color-interpolation-filters="sRGB">
<feFlood flood-opacity="0" result="BackgroundImageFix"/>
<feColorMatrix in="SourceAlpha" type="matrix" values="0 0 0 0 0 0 0 0 0 0 0 0 0 0 0 0 0 0 127 0" result="hardAlpha"/>
<feOffset dy="4"/>
<feGaussianBlur stdDeviation="2"/>
<feComposite in2="hardAlpha" operator="out"/>
<feColorMatrix type="matrix" values="0 0 0 0 0 0 0 0 0 0 0 0 0 0 0 0 0 0 0.25 0"/>
<feBlend mode="normal" in2="BackgroundImageFix" result="effect1_dropShadow_35_95"/>
<feBlend mode="normal" in="SourceGraphic" in2="effect1_dropShadow_35_95" result="shape"/>
</filter>
<filter id="filter5_d_35_95" x="17.0651" y="21.1531" width="36.8699" height="32.6379" filterUnits="userSpaceOnUse" color-interpolation-filters="sRGB">
<feFlood flood-opacity="0" result="BackgroundImageFix"/>
<feColorMatrix in="SourceAlpha" type="matrix" values="0 0 0 0 0 0 0 0 0 0 0 0 0 0 0 0 0 0 127 0" result="hardAlpha"/>
<feOffset dy="4"/>
<feGaussianBlur stdDeviation="2"/>
<feComposite in2="hardAlpha" operator="out"/>
<feColorMatrix type="matrix" values="0 0 0 0 0 0 0 0 0 0 0 0 0 0 0 0 0 0 0.25 0"/>
<feBlend mode="normal" in2="BackgroundImageFix" result="effect1_dropShadow_35_95"/>
<feBlend mode="normal" in="SourceGraphic" in2="effect1_dropShadow_35_95" result="shape"/>
</filter>
<filter id="filter6_d_35_95" x="17.0651" y="21.1531" width="36.8699" height="32.6379" filterUnits="userSpaceOnUse" color-interpolation-filters="sRGB">
<feFlood flood-opacity="0" result="BackgroundImageFix"/>
<feColorMatrix in="SourceAlpha" type="matrix" values="0 0 0 0 0 0 0 0 0 0 0 0 0 0 0 0 0 0 127 0" result="hardAlpha"/>
<feOffset dy="4"/>
<feGaussianBlur stdDeviation="2"/>
<feComposite in2="hardAlpha" operator="out"/>
<feColorMatrix type="matrix" values="0 0 0 0 0 0 0 0 0 0 0 0 0 0 0 0 0 0 0.25 0"/>
<feBlend mode="normal" in2="BackgroundImageFix" result="effect1_dropShadow_35_95"/>
<feBlend mode="normal" in="SourceGraphic" in2="effect1_dropShadow_35_95" result="shape"/>
</filter>
<filter id="filter7_d_35_95" x="24.2016" y="27.1222" width="22.5968" height="20.6998" filterUnits="userSpaceOnUse" color-interpolation-filters="sRGB">
<feFlood flood-opacity="0" result="BackgroundImageFix"/>
<feColorMatrix in="SourceAlpha" type="matrix" values="0 0 0 0 0 0 0 0 0 0 0 0 0 0 0 0 0 0 127 0" result="hardAlpha"/>
<feOffset dy="4"/>
<feGaussianBlur stdDeviation="2"/>
<feComposite in2="hardAlpha" operator="out"/>
<feColorMatrix type="matrix" values="0 0 0 0 0 0 0 0 0 0 0 0 0 0 0 0 0 0 0.25 0"/>
<feBlend mode="normal" in2="BackgroundImageFix" result="effect1_dropShadow_35_95"/>
<feBlend mode="normal" in="SourceGraphic" in2="effect1_dropShadow_35_95" result="shape"/>
</filter>
<filter id="filter8_d_35_95" x="0.807327" y="21.6068" width="33.479" height="33.992" filterUnits="userSpaceOnUse" color-interpolation-filters="sRGB">
<feFlood flood-opacity="0" result="BackgroundImageFix"/>
<feColorMatrix in="SourceAlpha" type="matrix" values="0 0 0 0 0 0 0 0 0 0 0 0 0 0 0 0 0 0 127 0" result="hardAlpha"/>
<feOffset dy="4"/>
<feGaussianBlur stdDeviation="2"/>
<feComposite in2="hardAlpha" operator="out"/>
<feColorMatrix type="matrix" values="0 0 0 0 0 0 0 0 0 0 0 0 0 0 0 0 0 0 0.25 0"/>
<feBlend mode="normal" in2="BackgroundImageFix" result="effect1_dropShadow_35_95"/>
<feBlend mode="normal" in="SourceGraphic" in2="effect1_dropShadow_35_95" result="shape"/>
</filter>
<filter id="filter9_d_35_95" x="0.807327" y="19.964" width="33.479" height="33.992" filterUnits="userSpaceOnUse" color-interpolation-filters="sRGB">
<feFlood flood-opacity="0" result="BackgroundImageFix"/>
<feColorMatrix in="SourceAlpha" type="matrix" values="0 0 0 0 0 0 0 0 0 0 0 0 0 0 0 0 0 0 127 0" result="hardAlpha"/>
<feOffset dy="4"/>
<feGaussianBlur stdDeviation="2"/>
<feComposite in2="hardAlpha" operator="out"/>
<feColorMatrix type="matrix" values="0 0 0 0 0 0 0 0 0 0 0 0 0 0 0 0 0 0 0.25 0"/>
<feBlend mode="normal" in2="BackgroundImageFix" result="effect1_dropShadow_35_95"/>
<feBlend mode="normal" in="SourceGraphic" in2="effect1_dropShadow_35_95" result="shape"/>
</filter>
</defs>
</svg>
