<svg width="37" height="36" viewBox="0 0 37 36" fill="none" xmlns="http://www.w3.org/2000/svg">
<g clip-path="url(#clip0_2_97)">
<path d="M1.54167 1.5H7.70833L11.84 21.585C11.981 22.2756 12.3671 22.8959 12.9308 23.3374C13.4945 23.779 14.1998 24.0135 14.9233 24H29.9083C30.6318 24.0135 31.3372 23.779 31.9009 23.3374C32.4646 22.8959 32.8507 22.2756 32.9917 21.585L35.4583 9H9.25M15.4167 31.5C15.4167 32.3284 14.7264 33 13.875 33C13.0236 33 12.3333 32.3284 12.3333 31.5C12.3333 30.6716 13.0236 30 13.875 30C14.7264 30 15.4167 30.6716 15.4167 31.5ZM32.375 31.5C32.375 32.3284 31.6848 33 30.8333 33C29.9819 33 29.2917 32.3284 29.2917 31.5C29.2917 30.6716 29.9819 30 30.8333 30C31.6848 30 32.375 30.6716 32.375 31.5Z" stroke="white" stroke-width="4" stroke-linecap="round" stroke-linejoin="round"/>
</g>
<defs>
<clipPath id="clip0_2_97">
<rect width="37" height="36" fill="white"/>
</clipPath>
</defs>
</svg>
